<svg width="25" height="24" viewBox="0 0 25 24" fill="none" xmlns="http://www.w3.org/2000/svg">
<rect width="25" height="24" rx="12" fill="#FFC25C" fill-opacity="0.4"/>
<g clip-path="url(#clip0_750_527)">
<path d="M12.5 16.125C13.018 16.125 13.4375 16.5445 13.4375 17.0625C13.4375 17.5805 13.018 18 12.5 18C11.982 18 11.5625 17.5805 11.5625 17.0625C11.5625 16.5445 11.982 16.125 12.5 16.125ZM12.5 6C13.1211 6 13.625 6.50391 13.625 7.125V7.16484L13.25 14.2898C13.2289 14.6883 12.8984 15 12.5 15C12.1016 15 11.7734 14.6883 11.75 14.2898L11.375 7.16484V7.125C11.375 6.50391 11.8789 6 12.5 6Z" fill="white" fill-opacity="0.7"/>
</g>
<defs>
<clipPath id="clip0_750_527">
<rect width="3" height="12" fill="white" transform="translate(11 6)"/>
</clipPath>
</defs>
</svg>
