<svg width="11" height="11" viewBox="0 0 11 11" fill="none" xmlns="http://www.w3.org/2000/svg">
<path d="M9.72537 10.64L6.7079 7.62171C6.38227 7.88229 6.0078 8.08857 5.58449 8.24057C5.16118 8.39257 4.71073 8.46857 4.23314 8.46857C3.05003 8.46857 2.04884 8.05861 1.22956 7.23867C0.410289 6.41874 0.000434513 5.41728 3.44578e-07 4.23429C-0.000433824 3.05129 0.409421 2.04983 1.22956 1.2299C2.04971 0.409966 3.0509 0 4.23314 0C5.41538 0 6.41679 0.409966 7.23737 1.2299C8.05795 2.04983 8.46758 3.05129 8.46628 4.23429C8.46628 4.712 8.3903 5.16257 8.23834 5.586C8.08638 6.00943 7.88015 6.384 7.61965 6.70971L10.6371 9.728L9.72537 10.64ZM4.23314 7.16571C5.04721 7.16571 5.73927 6.88082 6.30933 6.31104C6.8794 5.74126 7.16421 5.04901 7.16378 4.23429C7.16334 3.41957 6.87853 2.72753 6.30933 2.15818C5.74014 1.58883 5.04807 1.30373 4.23314 1.30286C3.41821 1.30199 2.72636 1.5871 2.1576 2.15818C1.58884 2.72927 1.30381 3.4213 1.30251 4.23429C1.3012 5.04727 1.58623 5.73952 2.1576 6.31104C2.72897 6.88256 3.42081 7.16745 4.23314 7.16571Z" fill="#222222"/>
</svg>
