<svg width="16" height="15" viewBox="0 0 16 15" fill="none" xmlns="http://www.w3.org/2000/svg">
<path d="M7.52451 -1.08502e-10C8.52232 -1.2289e-10 9.47927 0.395088 10.1848 1.09835C10.8904 1.80161 11.2868 2.75544 11.2868 3.75C11.2868 4.74456 10.8904 5.69839 10.1848 6.40165C9.47927 7.10491 8.52232 7.5 7.52451 7.5C6.5267 7.5 5.56975 7.10491 4.86419 6.40165C4.15863 5.69839 3.76225 4.74456 3.76225 3.75C3.76225 2.75544 4.15863 1.80161 4.86419 1.09835C5.56975 0.395088 6.5267 0 7.52451 -1.08502e-10ZM7.52451 15C7.52451 15 15.049 15 15.049 13.125C15.049 10.875 11.3808 8.4375 7.52451 8.4375C3.6682 8.4375 1.56816e-10 10.875 1.8926e-10 13.125C2.16298e-10 15 7.52451 15 7.52451 15Z" fill="#222222"/>
</svg>
