<svg width="35" height="35" viewBox="0 0 35 35" fill="none" xmlns="http://www.w3.org/2000/svg">
<rect width="35" height="35" rx="17.5" fill="#FEB53C"/>
<g clip-path="url(#clip0_750_542)">
<path d="M17.5 24.0312C18.3633 24.0312 19.0625 24.6955 19.0625 25.5156C19.0625 26.3357 18.3633 27 17.5 27C16.6367 27 15.9375 26.3357 15.9375 25.5156C15.9375 24.6955 16.6367 24.0312 17.5 24.0312ZM17.5 8C18.5352 8 19.375 8.79785 19.375 9.78125V9.84434L18.75 21.1256C18.7148 21.7564 18.1641 22.25 17.5 22.25C16.8359 22.25 16.2891 21.7564 16.25 21.1256L15.625 9.84434V9.78125C15.625 8.79785 16.4648 8 17.5 8Z" fill="white"/>
</g>
<defs>
<clipPath id="clip0_750_542">
<rect width="5" height="19" fill="white" transform="translate(15 8)"/>
</clipPath>
</defs>
</svg>
