<svg width="19" height="19" viewBox="0 0 19 19" fill="none" xmlns="http://www.w3.org/2000/svg">
<path d="M14.2502 10.292C14.4745 10.292 14.6626 10.216 14.8146 10.064C14.9666 9.91199 15.0424 9.7241 15.0418 9.50033C15.0413 9.27655 14.9653 9.08866 14.8138 8.93666C14.6624 8.78466 14.4745 8.70866 14.2502 8.70866H11.8752C11.6509 8.70866 11.463 8.78466 11.3115 8.93666C11.16 9.08866 11.084 9.27655 11.0835 9.50033C11.083 9.7241 11.159 9.91226 11.3115 10.0648C11.464 10.2173 11.6519 10.293 11.8752 10.292H14.2502ZM14.2502 7.91699C14.4745 7.91699 14.6626 7.84099 14.8146 7.68899C14.9666 7.53699 15.0424 7.3491 15.0418 7.12533C15.0413 6.90155 14.9653 6.71366 14.8138 6.56166C14.6624 6.40966 14.4745 6.33366 14.2502 6.33366H11.8752C11.6509 6.33366 11.463 6.40966 11.3115 6.56166C11.16 6.71366 11.084 6.90155 11.0835 7.12533C11.083 7.3491 11.159 7.53726 11.3115 7.68978C11.464 7.84231 11.6519 7.91805 11.8752 7.91699H14.2502ZM7.12516 10.292C6.65016 10.292 6.22134 10.335 5.8387 10.421C5.45607 10.5071 5.11961 10.6422 4.82933 10.8264C4.55225 10.9979 4.34114 11.1926 4.196 11.4106C4.05086 11.6286 3.97829 11.8627 3.97829 12.1128C3.97829 12.2712 4.03766 12.4031 4.15641 12.5087C4.27516 12.6142 4.4203 12.667 4.59183 12.667H9.6585C9.83002 12.667 9.97516 12.6108 10.0939 12.4984C10.2127 12.386 10.272 12.2442 10.272 12.0732C10.272 11.8489 10.1995 11.6312 10.0543 11.4201C9.90919 11.209 9.69808 11.0111 9.421 10.8264C9.13072 10.6416 8.79426 10.5063 8.41162 10.4202C8.02898 10.3342 7.60016 10.2915 7.12516 10.292ZM7.12516 9.50033C7.56058 9.50033 7.93319 9.34542 8.243 9.03562C8.5528 8.72581 8.70797 8.35294 8.7085 7.91699C8.70902 7.48105 8.55412 7.10844 8.24379 6.79916C7.93345 6.48988 7.56058 6.33471 7.12516 6.33366C6.68975 6.3326 6.31713 6.48777 6.00733 6.79916C5.69752 7.11055 5.54236 7.48316 5.54183 7.91699C5.5413 8.35083 5.69647 8.7237 6.00733 9.03562C6.31819 9.34753 6.6908 9.50244 7.12516 9.50033ZM3.16683 15.8337C2.73141 15.8337 2.3588 15.6788 2.049 15.3689C1.73919 15.0591 1.58402 14.6863 1.5835 14.2503V4.75033C1.5835 4.31491 1.73866 3.9423 2.049 3.63249C2.35933 3.32269 2.73194 3.16752 3.16683 3.16699H15.8335C16.2689 3.16699 16.6418 3.32216 16.9521 3.63249C17.2625 3.94283 17.4174 4.31544 17.4168 4.75033V14.2503C17.4168 14.6857 17.2619 15.0586 16.9521 15.3689C16.6423 15.6793 16.2694 15.8342 15.8335 15.8337H3.16683Z" fill="#222222"/>
</svg>
