<svg width="26" height="26" viewBox="0 0 26 26" fill="none" xmlns="http://www.w3.org/2000/svg">
<path d="M21.5583 13.7148C21.3846 13.5171 21.2888 13.263 21.2888 12.9998C21.2888 12.7367 21.3846 12.4825 21.5583 12.2848L22.945 10.7248C23.0978 10.5544 23.1927 10.3399 23.216 10.1122C23.2394 9.88452 23.19 9.65526 23.075 9.45735L20.9083 5.70901C20.7944 5.51133 20.6211 5.35463 20.4129 5.26126C20.2048 5.16788 19.9725 5.1426 19.7491 5.18901L17.7125 5.60068C17.4533 5.65423 17.1835 5.61107 16.954 5.47935C16.7245 5.34762 16.5511 5.13645 16.4666 4.88568L15.8058 2.90318C15.7331 2.68801 15.5947 2.50112 15.41 2.36892C15.2253 2.23673 15.0037 2.16593 14.7766 2.16651H10.4433C10.2071 2.15418 9.97328 2.21952 9.77766 2.35254C9.58205 2.48556 9.43535 2.67895 9.35997 2.90318L8.7533 4.88568C8.6688 5.13645 8.49544 5.34762 8.26592 5.47935C8.03641 5.61107 7.76662 5.65423 7.50747 5.60068L5.41664 5.18901C5.2049 5.15909 4.98904 5.1925 4.79626 5.28504C4.60348 5.37757 4.4424 5.52509 4.3333 5.70901L2.16664 9.45735C2.04873 9.65305 1.99571 9.88102 2.01517 10.1087C2.03462 10.3363 2.12556 10.552 2.27497 10.7248L3.6508 12.2848C3.82448 12.4825 3.92026 12.7367 3.92026 12.9998C3.92026 13.263 3.82448 13.5171 3.6508 13.7148L2.27497 15.2748C2.12556 15.4477 2.03462 15.6634 2.01517 15.891C1.99571 16.1187 2.04873 16.3466 2.16664 16.5423L4.3333 20.2907C4.44716 20.4884 4.62051 20.6451 4.82866 20.7384C5.0368 20.8318 5.26911 20.8571 5.49247 20.8107L7.52914 20.399C7.78829 20.3455 8.05808 20.3886 8.28759 20.5203C8.51711 20.6521 8.69047 20.8632 8.77497 21.114L9.4358 23.0965C9.51118 23.3207 9.65788 23.5141 9.8535 23.6472C10.0491 23.7802 10.2829 23.8455 10.5191 23.8332H14.8525C15.0796 23.8338 15.3011 23.763 15.4858 23.6308C15.6705 23.4986 15.809 23.3117 15.8816 23.0965L16.5425 21.114C16.627 20.8632 16.8003 20.6521 17.0298 20.5203C17.2594 20.3886 17.5292 20.3455 17.7883 20.399L19.825 20.8107C20.0483 20.8571 20.2806 20.8318 20.4888 20.7384C20.6969 20.6451 20.8703 20.4884 20.9841 20.2907L23.1508 16.5423C23.2658 16.3444 23.3152 16.1152 23.2918 15.8875C23.2685 15.6598 23.1736 15.4453 23.0208 15.2748L21.5583 13.7148ZM19.9441 15.1665L20.8108 16.1415L19.4241 18.5465L18.1458 18.2865C17.3656 18.127 16.5539 18.2596 15.8649 18.659C15.176 19.0584 14.6576 19.6968 14.4083 20.4532L13.9966 21.6665H11.2233L10.8333 20.4315C10.584 19.6752 10.0656 19.0367 9.37666 18.6373C8.68768 18.2379 7.87604 18.1054 7.0958 18.2648L5.81747 18.5248L4.40914 16.1307L5.2758 15.1557C5.80875 14.5598 6.1034 13.7884 6.1034 12.989C6.1034 12.1896 5.80875 11.4182 5.2758 10.8223L4.40914 9.84735L5.7958 7.46401L7.07414 7.72401C7.85438 7.8835 8.66602 7.75097 9.35499 7.35156C10.044 6.95216 10.5623 6.31368 10.8116 5.55735L11.2233 4.33318H13.9966L14.4083 5.56818C14.6576 6.32452 15.176 6.96299 15.8649 7.36239C16.5539 7.7618 17.3656 7.89434 18.1458 7.73485L19.4241 7.47485L20.8108 9.87985L19.9441 10.8548C19.4172 11.4493 19.1262 12.2163 19.1262 13.0107C19.1262 13.8051 19.4172 14.572 19.9441 15.1665ZM12.61 8.66651C11.7529 8.66651 10.9151 8.92066 10.2025 9.39681C9.48988 9.87296 8.93447 10.5497 8.60649 11.3416C8.27851 12.1334 8.1927 13.0047 8.3599 13.8452C8.5271 14.6858 8.93981 15.4579 9.54584 16.064C10.1519 16.67 10.924 17.0827 11.7646 17.2499C12.6052 17.4171 13.4765 17.3313 14.2683 17.0033C15.0601 16.6753 15.7369 16.1199 16.213 15.4073C16.6892 14.6947 16.9433 13.8569 16.9433 12.9998C16.9433 11.8506 16.4868 10.7484 15.6741 9.93572C14.8614 9.12306 13.7592 8.66651 12.61 8.66651ZM12.61 15.1665C12.1814 15.1665 11.7625 15.0394 11.4062 14.8014C11.0499 14.5633 10.7722 14.2249 10.6082 13.829C10.4442 13.4331 10.4013 12.9974 10.4849 12.5772C10.5685 12.1569 10.7749 11.7708 11.0779 11.4678C11.3809 11.1648 11.767 10.9584 12.1873 10.8748C12.6076 10.7912 13.0432 10.8341 13.4391 10.9981C13.835 11.1621 14.1734 11.4398 14.4115 11.7961C14.6496 12.1524 14.7766 12.5713 14.7766 12.9998C14.7766 13.5745 14.5484 14.1256 14.142 14.5319C13.7357 14.9382 13.1846 15.1665 12.61 15.1665Z" fill="#222222"/>
</svg>
